<?xml version="1.0" encoding="UTF-8"?>
<svg width="645px" height="1185px" viewBox="0 0 645 1185" version="1.1" xmlns="http://www.w3.org/2000/svg" xmlns:xlink="http://www.w3.org/1999/xlink">
    <!-- Generator: Sketch 60 (88103) - https://sketch.com -->
    <title>Group 4</title>
    <desc>Created with Sketch.</desc>
    <g id="Page-1" stroke="none" stroke-width="1" fill="none" fill-rule="evenodd">
        <g id="Artboard-Copy-7" transform="translate(-134.000000, -225.000000)">
            <g id="Group-4" transform="translate(136.787000, 227.563000)">
                <path d="M328.93,801.137 L531.638,1116.037 C531.638,1116.037 405.917,1142.067 334.589,1146.167 C263.261,1150.257 202.4,1146.667 202.4,1146.667 L328.93,801.137 Z" id="Path" stroke="#B4B4B4" stroke-width="4" fill-opacity="0.6" fill="#2D2D2D" stroke-linecap="round" stroke-linejoin="round"></path>
                <path d="M235.479,1114.327 L321.804,1119.217 C321.804,1119.217 301.037,1183.147 279.456,1181.917 C257.875,1180.697 235.479,1114.327 235.479,1114.327 Z" id="Path" fill="#070707"></path>
                <path d="M338.619,1114.317 L424.944,1104.957 C424.944,1104.957 411.301,1183.147 389.72,1181.927 C368.139,1180.707 338.619,1114.317 338.619,1114.317 Z" id="Path" fill="#070707"></path>
                <polygon id="Path" fill-opacity="0.6" fill="#2D2D2D" points="231.301 624.017 290.635 611.847 249.217 680.207 233.171 706.687 165.577 741.287 151.953 700.857"></polygon>
                <polygon id="Path" fill-opacity="0.6" fill="#2D2D2D" points="324.601 482.737 292.409 528.077 307.986 636.767 360.946 664.117 384.83 570.997"></polygon>
                <path d="M332.2,204.141 C322.3,227.39 351.908,276.864 395.917,272 C412.88,270.125 225.358,275.696 246.031,264.419 C275.317,248.444 282.633,226.945 274.861,204.474 C268.983,187.48 339.3,187.468 332.2,204.141 Z" id="Path" stroke="#BFBFBF" stroke-width="4" fill="#F1F1F1" stroke-linecap="round" stroke-linejoin="round"></path>
                <path d="M240.662,264.419 C255.953,262.196 272.208,239.285 272.208,239.285 L303.056,253.994 L314.291,249.249 L337.475,239.458 C337.475,239.458 375.644,271.06 410.929,270.014 C464.674,268.42 303.979,482.927 303.979,482.927 C303.979,482.927 187.557,272.142 240.662,264.419 Z" id="Path" stroke="#606060" stroke-width="4" fill="#D7D7D7" stroke-linecap="round" stroke-linejoin="round"></path>
                <path d="M333.134,361.106 C323.703,395.927 278.147,412.987 271.508,377.463 C267.303,354.959 297.992,293.802 305.093,272 C309.697,285.74 337.165,346.224 333.134,361.106 Z" id="Path" fill="#2D2D2D"></path>
                <path d="M325.722,779.377 L528.43,1094.277 C528.43,1094.277 417.179,1122.267 345.851,1126.367 C274.523,1130.457 199.192,1124.907 199.192,1124.907 L325.722,779.377 Z" id="Path" fill="#B4B4B4"></path>
                <path d="M333.53,531.507 C325.283,530.557 317.29,530.397 309.7,532.977 C300.701,536.037 294.695,542.207 292.098,549.367 C284.969,569.017 303.513,596.167 356.314,587.137 C356.314,577.177 338.489,540.907 333.53,531.507 Z" id="Path" stroke="#BFBFBF" stroke-width="4" fill="#F1F1F1" stroke-linecap="round" stroke-linejoin="round"></path>
                <path d="M453.570323,590.937 C493.898156,937.531248 523.049,994.120073 623.739021,1060.21494 C689.746456,1103.54349 532.850156,1183.15707 493.898156,1176.98707 C365.113156,1156.58707 309.143,792.437 295.03,713.597 C260.192,518.977 249.464,404.859 332.189,350.712 C336.409,347.95 340.825,344.881 345.318,341.656 C371.077,323.166 427.882,285.507 436.066,285.507 C443.881,285.507 533.846,430.587 523.049,519.757 C517.92,562.107 366.285,651.457 337.932,645.687 C330.444,644.167 358.555,640.047 351.089,580.757 C348.249,558.207 311.988,501.737 311.988,501.737 C311.988,501.737 316.548,496.247 320.639,497.207 C344.038,502.727 357.226729,505.323505 377.67,502.897 C399.959228,500.25139 408.340936,499.312826 423.320859,489.612411 C410.764888,439.156459 406.930511,423.065867 406.930511,423.065867 C406.930511,423.065867 421.93,459.047 426.145,470.957 C427.694,475.327 433.466,481.227 425.334,487.897 C416.709,494.967 401.825,500.287 377.309,502.897 C363,504.427 345.941,503.637 326.622,497.987 C316.992,495.177 307.439,502.117 309.649,509.157 C325.746,560.437 301.992,618.437 330.088,642.257 C346.509,656.177 423.232339,608.214916 453.570323,590.937 Z" id="Path" stroke="#B4B4B4" stroke-width="4" fill="#2D2D2D" stroke-linecap="round" stroke-linejoin="round"></path>
                <path d="M472.381,319.157 C478.6,308.721 410.779,254.171 400.521,263.972 C386.509,277.361 336.485,316.355 308.167,359.585 C303.76,366.313 299.878,373.144 296.739,379.997 C288.402,398.203 285.851,418.977 286.317,436.437 C287.153,467.777 297.709,488.427 301.967,464.317 C319.236,366.561 434.68,382.422 472.381,319.157 Z" id="Path" stroke="#2D2D2D" stroke-width="4" fill="#B4B4B4" stroke-linecap="round" stroke-linejoin="round"></path>
                <path d="M196.389,691.417 C196.389,691.417 233.718,709.897 263.471,692.177 C277.55,683.797 254.857,650.687 244.909,643.597" id="Path" stroke="#BFBFBF" stroke-width="4" fill="#F1F1F1" stroke-linecap="round" stroke-linejoin="round"></path>
                <path d="M137.283,699.367 C133.356,902.997 -8.52651283e-14,1114.857 -8.52651283e-14,1129.377 C-8.52651283e-14,1156.007 89.272,1176.957 128.71,1176.98707 C342.725,1177.187 312.288,764.977 311.523,750.427 C304.854,623.717 305.819,535.217 293.556,474.847 C283.97,427.667 266.402,398.771 230.106,375.014 C201.693,356.416 164.369,323.87 154.757,323.87 C146.942,323.87 65.977,451.887 64.746,482.347 C63.668,509.027 145.348,769.707 170.316,720.857 C176.171,709.397 204.917,680.447 230.96,655.447 C248.647,638.457 265.088,623.297 272.267,616.657 C285.051,604.827 148.802,503.447 149.802,485.457 C150.314,476.227 200.637,390.541 200.637,390.541 L172.37,440.317 C172.37,440.317 168.267,467.507 162.393,504.437 C196.221,539.317 279.674,608.147 273.671,617.787 C263.769,633.707 251.768,648.517 239.285,661.937 C226.802,675.347 213.836,687.367 202.003,697.697 C189.56,708.547 178.371,717.527 170.316,724.297 C153.829,738.137 137.16,694.477 137.283,699.367 Z" id="Path" stroke="#B4B4B4" stroke-width="4" fill="#2D2D2D" stroke-linecap="round" stroke-linejoin="round"></path>
                <path d="M216.225,114.964 C215.486263,30.1210323 219.972,18.006 299.752,13.557 C380.625,9.047 395.01,27.501 386.724,123.882 C383.801,157.87 349.182,216.412 305.834,216.412 C269.172,216.412 216.694099,168.839426 216.225,114.964 Z" id="Path" stroke="#BFBFBF" stroke-width="4" fill="#F1F1F1" stroke-linecap="round" stroke-linejoin="round"></path>
                <path d="M243.304,99.342 C243.304,89.271 252.476,81.107 263.789,81.107 C270.586,81.107 276.609,84.053 280.335,88.589 C282.812,91.604 284.274,95.321 284.274,99.342 C284.274,109.413 275.102,117.577 263.789,117.577 C252.476,117.577 243.304,109.413 243.304,99.342 Z" id="Path" stroke="#083B6E" stroke-width="4" stroke-linecap="round" stroke-linejoin="round"></path>
                <path d="M243.304,99.342 C243.304,89.271 252.476,81.107 263.789,81.107 C270.586,81.107 276.609,84.053 280.335,88.589 C282.812,91.604 284.274,95.321 284.274,99.342 C284.274,109.413 275.102,117.577 263.789,117.577 C252.476,117.577 243.304,109.413 243.304,99.342 Z" id="Path" stroke="#172431" stroke-width="4" stroke-linecap="round" stroke-linejoin="round"></path>
                <path d="M321.804,99.342 C321.804,89.271 330.975,81.107 342.289,81.107 C349.085,81.107 355.109,84.053 358.835,88.589 C361.312,91.604 362.774,95.321 362.774,99.342 C362.774,109.413 353.602,117.577 342.289,117.577 C330.975,117.577 321.804,109.413 321.804,99.342 Z" id="Path" stroke="#172431" stroke-width="4" stroke-linecap="round" stroke-linejoin="round"></path>
                <path d="M342.289,101.991 C342.289,100.528 343.884,99.342 345.851,99.342 C347.819,99.342 349.414,100.528 349.414,101.991 C349.414,103.454 347.819,104.64 345.851,104.64 C343.884,104.64 342.289,103.454 342.289,101.991 Z" id="Path" stroke="#070707" stroke-width="4" fill="#070707" stroke-linecap="round" stroke-linejoin="round"></path>
                <path d="M263.789,101.991 C263.789,100.528 265.517,99.342 267.649,99.342 C269.78,99.342 271.508,100.528 271.508,101.991 C271.508,103.454 269.78,104.64 267.649,104.64 C265.517,104.64 263.789,103.454 263.789,101.991 Z" id="Path" stroke="#070707" stroke-width="4" fill="#070707" stroke-linecap="round" stroke-linejoin="round"></path>
                <path d="M291.734,119.974 C292.682,118.43 297.992,114.69 303.22,114.98 C309.004,115.299 314.706,119.741 314.706,119.741" id="Path" stroke="#9F9384" stroke-width="4" stroke-linecap="round" stroke-linejoin="round"></path>
                <path d="M273.752,164.237 C272.973,164.116 290.814,172.384 308.128,171.874 C324.124,171.403 339.672,162.146 339.672,162.146" id="Path" stroke="#9F9384" stroke-width="4" stroke-linecap="round" stroke-linejoin="round"></path>
                <path d="M383.25,103.296 C383.25,103.296 406.929,102.545 406.929,123.775 C406.929,142.266 376.905,144.254 376.905,144.254" id="Path" stroke="#BFBFBF" stroke-width="4" fill="#F1F1F1" stroke-linecap="round" stroke-linejoin="round"></path>
                <path d="M222.771967,111.027824 C222.771967,111.027824 204.340786,96.7249198 204.600357,116.771755 C204.986075,146.621295 229.597641,144.02643 229.597641,144.02643" id="Path" stroke="#BFBFBF" stroke-width="4" fill="#F1F1F1" stroke-linecap="round" stroke-linejoin="round"></path>
                <path d="M365.978,98.065 C365.978,98.065 394.896,84.63 405.431,86.55 C415.967,88.471 408.12,105.746 408.12,105.746" id="Path" stroke="#172431" stroke-width="4" stroke-linecap="round" stroke-linejoin="round"></path>
                <path d="M243.304,100.939 C243.304,100.939 219.033,87.455 208.056,88.043 C197.079,88.631 199.396,103.293 199.396,103.293" id="Path" stroke="#172431" stroke-width="4" stroke-linecap="round" stroke-linejoin="round"></path>
                <line x1="289.601" y1="100.38" x2="317.213" y2="100.437" id="Path" stroke="#172431" stroke-width="4" stroke-linecap="round" stroke-linejoin="round"></line>
                <path d="M201.038,58.993 C194.363,58.943 208.774,-5.68434189e-14 298.586,-5.68434189e-14 C391.006,-5.68434189e-14 409.01,57.975 393.976,59.664 C390.527,60.051 351.735,60.231 348.173,60.2420646 C346.255,60.248 342.432,42.494 342.432,42.494 C342.432,42.494 341.269,60.28 339.884,60.217 C339.009,60.177 336.172,60.2420646 335.484,60.207 C333.395,60.103 332.556,11.167 330.24,11.224 C328.591,11.265 327.957,60.307 326.604,60.2420646 C324.318,60.131 323.65,60.182 323.65,60.182 C319.308,60.2420646 316.961,25.919 315.271,25.879 C313.715,25.842 315.583,60.2420646 310.535,59.989 C279.711,58.442 246.964,58.544 224.886,58.765 C223.925,58.775 222.289,45.946 221.37,45.956 C219.94,45.972 219.257,58.826 217.934,58.841 C210.086,58.933 204.182,59.017 201.038,58.993 Z" id="Path" stroke="#595959" stroke-width="4" fill="#595959" stroke-linecap="round" stroke-linejoin="round"></path>
                <path d="M246.085,69.113 C246.085,69.113 251.948,71.93 260.071,71.93 C263.954,71.93 268.669,69.878 273.209,69.206 C278.165,68.472 282.789,69.113 282.789,69.113" id="Path" stroke="#595959" stroke-width="4" stroke-linecap="round" stroke-linejoin="round"></path>
                <path d="M330.033,77.333 C329.518,77.107 337.389,74.534 344.928,74.368 C350.516,74.245 356.314,76.494 356.314,76.494" id="Path" stroke="#595959" stroke-width="4" stroke-linecap="round" stroke-linejoin="round"></path>
                <path d="M288.688,249.609 C294.724,252.922 309.7,255.659 319.02,249.265 C327.685,243.32 325.421,283.373 308.775,285.416 C289.901,287.732 280.231,244.967 288.688,249.609 Z" id="Path" fill="#2D2D2D"></path>
                <path d="M272.73,238.749 C278.92,243.808 303.248,251.408 301.894,252.922 C284.679,272.171 282.789,280.242 282.633,280.242 C275.45,272 260.184,257.868 257.943,255.395 C255.702,252.922 269.62,236.208 272.73,238.749 Z" id="Path" stroke="#606060" stroke-width="4" fill="#D7D7D7" stroke-linecap="round" stroke-linejoin="round"></path>
                <path d="M338.329,236.744 C327.611,244.751 301.355,250.702 303.979,252.922 C320.72,267.085 327.97,280.242 327.97,280.242 C338.619,264.419 353.748,255.248 356.709,252.922 C358.066,251.856 339.739,235.69 338.329,236.744 Z" id="Path" stroke="#606060" stroke-width="4" fill="#D7D7D7" stroke-linecap="round" stroke-linejoin="round"></path>
                <path d="M133.905,323.87 C98.863,306.112 231.008,235.772 249.525,277.377 C260.426,301.871 288.149,400.914 299.594,451.507 C304.972,475.277 303.795,518.867 296.739,492.377 C262.542,364.009 184.785,349.656 133.905,323.87 Z" id="Path" stroke="#2D2D2D" stroke-width="4" fill="#B4B4B4" stroke-linecap="round" stroke-linejoin="round"></path>
                <path d="M323.975,530.867 C323.975,530.867 292.014,529.997 279.824,541.657 C267.634,553.307 283.412,565.557 296.739,577.377 C310.067,589.197 326.04,589.107 333.134,588.917" id="Path" stroke="#BFBFBF" stroke-width="4" fill="#F1F1F1" stroke-linecap="round" stroke-linejoin="round"></path>
                <path d="M201.597,693.627 C212.886,697.927 240.447,705.887 263.471,692.177 C275.948,684.757 259.544,657.907 248.726,646.957" id="Path" stroke="#BFBFBF" stroke-width="4" fill="#F1F1F1" stroke-linecap="round" stroke-linejoin="round"></path>
            </g>
        </g>
    </g>
</svg>